<svg id="Layer_1" data-name="Layer 1" xmlns="http://www.w3.org/2000/svg" viewBox="0 0 545.08 152.8"><defs><style>.cls-1{fill:#cef7d2;}</style></defs><path class="cls-1" d="M230,312.32c0,25.69-21.29,45-55.76,45-35.57,0-54.46-21.3-56.65-23.93l10.54-18.88c12.29,13.61,29.2,21.73,46.55,21.73,22.17,0,34.25-9,34.25-23.05,0-11.86-13.39-19.1-33.59-22.62-41.06-7-52.7-21.73-52.7-41.49,0-23.94,18.66-42.82,53.14-42.82,6.14,0,29.42.66,47.64,17.57l-10.1,19.1c-7.69-7.46-19.54-15.59-38-15.59-20.2,0-31.62,7.69-31.62,20.86,0,11.42,10.1,16.69,33.37,21.3C212.19,276.31,230,287.51,230,312.32Z" transform="translate(-117.56 -204.53)"/><path class="cls-1" d="M358.11,355.57H333.52l-36.67-50.93H273.8v50.93H252.72v-72h52.47c15.37,0,28.33-7.9,28.33-27,0-19.32-12.52-27.44-27.89-27.44H252.72V208h45.67c38.42,0,56.2,19.32,56.2,47.21,0,22.83-12.51,41.49-34.47,47.42Z" transform="translate(-117.56 -204.53)"/><polygon class="cls-1" points="392.81 151.05 369.98 151.05 355.7 119.43 355.63 119.43 322.56 46.54 297.61 101.51 339.76 101.51 339.76 122.32 288.09 122.32 275.13 151.05 252.3 151.05 322.56 0 392.81 151.05"/><polygon class="cls-1" points="545.08 151.05 522.25 151.05 507.97 119.43 507.9 119.43 474.82 46.54 449.88 101.51 492.03 101.51 492.03 122.32 440.36 122.32 427.4 151.05 404.57 151.05 474.82 0 545.08 151.05"/></svg>