<?xml version="1.0" encoding="iso-8859-1"?>
<!-- Generator: Adobe Illustrator 27.0.0, SVG Export Plug-In . SVG Version: 6.00 Build 0)  -->
<svg version="1.1" id="Layer_1" xmlns="http://www.w3.org/2000/svg" xmlns:xlink="http://www.w3.org/1999/xlink" x="0px" y="0px"
	 viewBox="0 0 841.89 595.276" style="enable-background:new 0 0 841.89 595.276;" xml:space="preserve">
<g>
	<rect x="124.5" y="104.5" style="stroke:#231F20;stroke-width:0.75;stroke-miterlimit:10;" width="588" height="361"/>
	<g>
		<path style="fill:#0C00E7;" d="M368.835,348.061c1.364-0.843,1.138-1.978,0.604-3.146c-0.976-2.13-1.573-4.596-3.046-6.302
			c-3.073-3.564-4.364-7.672-5.014-12.139c-0.05-0.345-0.322-0.694-0.279-1.012c0.684-5.104-2.824-8.645-4.968-12.577
			c-1.347-2.472-1.583-4.938-0.942-7.161c0.83-2.874,1.005-6.149,3.723-8.426c0.727-0.607,0.368-2.924-0.007-4.317
			c-0.362-1.361-1.218-2.363-0.587-4.079c0.375-1.019-0.83-2.582-1.218-3.932c-1.198-4.168-3.843-7.288-6.966-10.158
			c-0.886-0.816-1.251-2.2-1.613-2.871c0.524-1.666,1.005-2.924,1.307-4.221c0.342-1.454,0.551-2.94,0.767-4.42
			c0.315-2.184-2.034-4.487-4.231-4.181c-0.916,0.126-1.832,0.252-2.748,0.385c-1.55,0.222-2.671,0.06-3.242-1.832
			c-0.604-2.008-2.227-2.94-4.457-2.894c-4.015,0.083-7.434,2.054-11.101,3.249c-0.69,0.226-1.546,0.421-2.194,0.212
			c-3.206-1.029-6.401-0.913-9.358,0.498c-2.525,1.205-4.337,0.282-6.249-1.102c-2.18-1.58-4.444-3.053-6.564-4.706
			c-0.856-0.667-1.968-1.639-2.048-2.555c-0.256-2.894-2.764-3.956-4.261-5.797c-0.816-1.005-1.46-2.293-3.01-2.728
			c-0.541-0.153-0.876-1.477-1.069-2.32c-0.279-1.231-0.345-2.512-0.564-4.261c1.284-2.751,2.831-5.95,1.669-10.009
			c-0.471-1.646-0.156-3.468-1.573-4.888c-0.252-0.252,0.01-1.281,0.315-1.782c1.314-2.157,2.761-4.231,4.098-6.375
			c0.325-0.518,0.322-1.238,0.624-1.775c0.597-1.062,1.301-2.061,1.965-3.083c0.036-0.056,0.156-0.07,0.169-0.123
			c1.002-3.694,4.998-3.889,7.218-6.172c1.357-1.397,2.595-2.575,1.948-4.925c-0.597-2.164,1.702-6.007,3.859-6.77
			c2.502-0.883,3.823-2.575,4.414-5.044c0.335-1.404,0.777-2.515,2.28-0.73c0.425,0.508,1.321,0.74,2.041,0.853
			c1.321,0.212,2.671,0.332,4.005,0.315c0.813-0.01,1.706-0.199,2.416-0.584c1.673-0.909,3.156-2.24,4.905-2.917
			c1.756-0.68,3.723-0.896,5.622-1.085c1.424-0.143,2.89,0.182,4.331,0.106c1.404-0.073,2.798-0.378,4.191-0.604
			c1.812-0.295,3.611-0.677,5.432-0.883c0.587-0.066,1.238,0.279,1.838,0.494c0.518,0.186,1.005,0.458,1.646,0.753
			c-0.78,0.982-1.427,2.273,0.093,3.75c0.222,0.216-0.594,1.915-1.281,2.555c-1.291,1.201-0.82,1.593,0.365,2.522
			c2.884,2.26,6.587,1.666,9.657,3.133c0.402,0.192,1.005,0.465,1.065,0.786c0.352,1.832,1.576,2.217,3.206,2.542
			c1.48,0.295,2.807,1.281,4.264,1.782c0.767,0.262,1.878,0.458,2.446,0.09c0.597-0.388,1.171-1.616,0.986-2.25
			c-0.484-1.639-0.066-2.695,1.394-3.319c1.759-0.75,3.581-1.606,5.326,0.09c0.332,0.325,0.624,0.816,1.019,0.933
			c4.188,1.225,8.386,2.409,12.6,3.538c0.385,0.103,0.929-0.216,1.344-0.441c1.746-0.946,3.262-1.799,5.466-0.518
			c1.241,0.72,3.246,0.129,4.828,0.129c1.855,2.768,1.543,5.549,0.159,8.452c-2.529-0.591-2.31-3.531-4.281-4.765
			c0.458,1.122,0.84,2.283,1.387,3.362c1.882,3.713,4.231,7.258,5.565,11.154c0.634,1.845,1.43,3.06,2.622,4.47
			c0.982,1.165,1.198,3.126,1.384,4.775c0.212,1.895,0.501,3.448,2.207,4.769c1.085,0.84,1.795,2.476,2.144,3.886
			c0.488,1.981,1.649,2.993,3.265,4.092c2.233,1.52,4.148,3.534,6.063,5.472c0.246,0.249-0.338,1.314-0.561,2.081
			c0.103,0.056,0.667,0.173,0.879,0.511c1.331,2.14,2.754,2.821,5.296,1.497c1.679-0.876,3.909-0.644,5.851-1.085
			c1.902-0.435,3.75-1.105,5.632-1.643c0.242-0.07,0.534,0.043,1.464,0.139c-0.84,2.555-1.308,5.071-2.446,7.231
			c-2.343,4.444-4.281,9.229-8.187,12.644c-2.452,2.144-5.346,3.823-7.619,6.129c-3.869,3.926-8.031,7.709-9.922,13.165
			c-0.372,1.069-0.65,2.004,0.484,2.854c0.312,0.236,0.355,0.939,0.375,1.437c0.109,2.545-0.209,5.2,2.25,7.009
			c0.279,0.206,0.435,0.723,0.461,1.112c0.199,2.877,0.335,5.761,0.521,8.638c0.103,1.6-2.094,5.011-4.138,5.519
			c-4.102,1.015-6.056,4.742-9.239,6.886c-0.319,0.216-0.179,1.271-0.08,1.911c0.388,2.476,0.78,4.955,1.304,7.4
			c0.342,1.59-0.564,2.214-1.736,2.725c-0.916,0.398-1.898,0.657-2.774,1.122c-1.128,0.597-1.865,1.105-1.48,2.927
			c0.465,2.197,0.05,4.679-2.014,6.382c-0.594,0.491-1.105,1.105-1.58,1.722c-1.938,2.515-3.843,5.054-5.768,7.576
			c-2.247,2.944-5.721,3.557-8.944,4.596c-0.654,0.209-1.556-0.455-2.267-0.319c-2.715,0.524-5.389,1.244-8.091,1.829
			c-1.918,0.415-2.764-1.181-3.76-2.286C369.526,350.082,369.31,349.097,368.835,348.061z"/>
		<path style="fill:#0C00E7;" d="M440.27,297.62c2.213,1.968,1.533,5.16,2.459,7.872c-0.295,0.192-0.591,0.385-0.883,0.577
			c-0.096-0.544-0.189-1.089-0.282-1.636c-0.189,0.139-0.378,0.279-0.567,0.418c0.096,5.618-2.154,10.643-3.873,15.806
			c-0.647,1.951-1.148,3.949-1.762,5.91c-0.71,2.27-2.96,2.14-4.553,2.303c-1.563,0.159-3.013-1.012-3.335-2.95
			c-0.216-1.304-0.763-2.575-0.816-3.876c-0.047-1.132,0.073-2.515,0.69-3.382c1.397-1.968,2.084-3.763,1.235-6.242
			c-1.241-3.63-0.103-5.393,3.451-6.71c2.243-0.833,4.626-1.689,4.994-4.626c0.017-0.133,0-0.312,0.076-0.388
			C438.06,299.75,439.029,298.821,440.27,297.62z"/>
	</g>
	<path style="fill:#FFFFFF;stroke:#231F20;stroke-width:0.75;stroke-miterlimit:10;" d="M257.107,271.977
		c0,12.856-12.01,22.686-31.739,22.686c-20.157,0-30.879-10.586-32.167-12.099l6.003-9.451c6.863,6.806,16.725,10.964,26.591,10.964
		c12.438,0,19.301-4.536,19.301-11.721c0-6.05-7.719-9.451-19.301-11.343c-23.588-3.401-30.023-10.964-30.023-20.794
		c0-12.099,10.722-21.551,30.023-21.551c3.431,0,16.725,0.378,27.02,8.695l-5.575,9.451c-4.288-3.78-11.15-7.941-21.444-7.941
		c-11.578,0-18.013,3.78-18.013,10.586c0,5.671,5.575,8.32,18.869,10.586C246.813,254.206,257.107,259.878,257.107,271.977z"/>
	<polygon style="fill:#FFFFFF;stroke:#231F20;stroke-width:0.75;stroke-miterlimit:10;" points="537.089,292.084 525.441,292.084 
		518.299,276.301 518.299,276.301 501.763,239.847 489.361,267.281 510.408,267.281 510.408,277.805 484.852,277.805 
		478.088,292.084 466.812,292.084 501.763,216.548 	"/>
	<polygon style="fill:#FFFFFF;stroke:#231F20;stroke-width:0.75;stroke-miterlimit:10;" points="611.557,293.757 599.909,293.757 
		592.767,277.974 592.767,277.974 576.231,241.52 563.829,268.954 584.876,268.954 584.876,279.477 559.32,279.477 552.556,293.757 
		541.28,293.757 576.231,218.22 	"/>
	<g>
		<path style="fill:#FFFFFF;" d="M391.372,168.07c-0.199,0.066-0.431,0.1-0.631,0.133c0.266,0.1,0.531,0.166,0.796,0.232
			C391.504,168.303,391.438,168.203,391.372,168.07z M323.673,174.077c0.033-0.033,0.066-0.033,0.1-0.066
			c0,0-0.033-0.033-0.066-0.033L323.673,174.077z"/>
		<path style="fill:#FFFFFF;" d="M637.508,390.711c-27.843-15.896-55.718-31.792-83.561-47.654
			c-11.515-6.571-13.374-6.372-22.002,1.427c-10.42-5.874-20.741-11.714-31.028-17.555c-13.175-7.467-26.283-14.834-39.424-22.334
			c4.347-11.615,6.703-22.964,7.434-33.783c0.133-1.858,0.232-3.717,0.232-5.542v-0.033c0.1-7.832-0.597-15.365-2.124-22.599
			c-0.863-4.414-2.057-8.695-3.518-12.81c-1.892-5.476-4.215-10.719-6.902-15.664c-1.659-3.02-3.451-5.973-5.343-8.794
			c-1.394-2.091-2.887-4.082-4.414-6.04c-2.223-2.821-4.58-5.542-7.069-8.097c-1.394-1.493-2.854-2.92-4.314-4.347
			c-2.854-2.622-5.741-5.077-8.827-7.334c-0.365-0.299-0.763-0.597-1.162-0.863c-0.465-0.365-0.996-0.697-1.493-1.062
			c-4.414-3.119-9.026-5.841-13.739-8.097c-0.962-0.498-1.892-0.929-2.854-1.327c-1.029-0.465-2.057-0.896-3.119-1.327
			c-6.04-2.423-12.212-4.248-18.451-5.442c-4.148-0.796-8.329-1.361-12.511-1.659c-1.427-0.133-2.854-0.199-4.248-0.232
			c-5.044-0.133-10.055,0.033-15.033,0.631c-3.451,0.365-6.903,0.896-10.288,1.692c-2.688,0.531-5.343,1.195-7.964,1.958
			c-0.896,0.265-1.792,0.531-2.688,0.83h-0.033c-1.128,0.365-2.223,0.73-3.352,1.161c-0.033,0-0.033,0-0.033,0.033
			c-1.161,0.398-2.29,0.796-3.418,1.294c-0.332,0.066-0.597,0.199-0.863,0.332c-1.493,0.564-2.953,1.228-4.414,1.892
			c-2.821,1.327-5.608,2.754-8.33,4.314c-0.1,0.066-0.199,0.133-0.299,0.166c-2.124,1.195-4.181,2.489-6.206,3.883h-0.033
			c-0.83,0.597-1.659,1.161-2.489,1.759c-1.228,0.896-2.423,1.792-3.617,2.721c-3.949,3.119-7.666,6.504-11.117,10.254
			c-0.199,0.199-0.431,0.431-0.631,0.664c-2.091,2.257-4.082,4.646-5.973,7.135c-0.199,0.299-0.398,0.564-0.597,0.863
			c-2.024,2.655-3.883,5.476-5.608,8.396c-27.046,45.597-16.36,102.875,24.358,135.695c15.763,12.743,38.561,21.67,63.218,22.068
			c5.276,0.066,10.686-0.232,16.095-0.996l0.033-0.033c1.825-0.232,3.584-0.531,5.409-0.896l0.133-0.033
			c0.398-0.066,0.763-0.133,1.161-0.199c3.086-0.664,6.239-1.46,9.358-2.423c0.033-0.033,0.1-0.033,0.133-0.066
			c6.637-2.057,13.175-4.812,19.646-8.429h0.066c0.299-0.166,0.631-0.365,0.929-0.531c0.066-0.066,0.133-0.1,0.232-0.166
			c12.08-6.869,23.694-16.659,34.314-29.8c13.672,7.865,27.378,15.829,41.15,23.794c6.903,3.949,13.772,7.931,20.675,11.88
			c4.546,2.588,8.628,4.646,7.566,11.482c-0.431,2.588,2.522,7.135,5.144,8.661c31.061,18.152,62.322,36.006,93.682,53.694
			c6.172,3.484,11.814,1.825,15.63-4.281c3.02-4.878,5.807-9.922,8.628-14.933C650.649,401.629,649.62,397.614,637.508,390.711z
			 M421.504,344.285c-2.721,1.892-5.608,3.684-8.595,5.31c-4.447,2.456-9.126,4.613-14.071,6.405l-0.033,0.033
			c-2.456,0.896-5.011,1.726-7.599,2.423c-9.591,2.622-19.248,3.783-28.672,3.551c-42.411-0.962-80.74-29.402-92.388-72.444
			c-7.998-29.502-2.157-59.103,13.639-82.067c0.266-0.365,0.498-0.73,0.763-1.062c1.062-1.527,2.157-3.02,3.319-4.447
			c0.398-0.498,0.763-0.962,1.161-1.427c0.863-1.062,1.726-2.091,2.688-3.086c0.896-0.996,1.858-2.024,2.821-2.987
			c2.091-2.157,4.314-4.215,6.637-6.172c0.431-0.365,0.863-0.73,1.294-1.062c0.631-0.564,1.294-1.062,1.991-1.593
			c0.83-0.664,1.726-1.327,2.622-1.991c0.365-0.232,0.697-0.465,1.062-0.697c0.066-0.066,0.133-0.1,0.199-0.166
			c0.597-0.431,1.228-0.83,1.858-1.261c0.266-0.199,0.531-0.365,0.83-0.531c3.319-2.157,6.737-4.082,10.354-5.841
			c0.73-0.365,1.527-0.763,2.29-1.095l0.033-0.1c0.033,0,0.066,0.033,0.066,0.033c0.033,0,0.033,0,0.066,0
			c0.531-0.265,1.062-0.498,1.626-0.697c0.73-0.365,1.527-0.697,2.323-0.996c2.721-1.128,5.542-2.124,8.462-2.987
			c0.896-0.265,1.792-0.564,2.721-0.796c1.825-0.498,3.65-0.962,5.476-1.327h0.033c1.062-0.265,2.124-0.465,3.186-0.697
			c0.83-0.133,1.692-0.265,2.522-0.365c3.816-0.631,7.633-0.996,11.416-1.128c1.659-0.1,3.319-0.1,4.978-0.066
			c0.332,0,0.664-0.033,0.996,0c4.978,0.1,9.856,0.564,14.701,1.394c2.854,0.498,5.675,1.128,8.462,1.858
			c0.199-0.033,0.431-0.066,0.631-0.133c0.066,0.133,0.133,0.232,0.166,0.365c4.447,1.195,8.761,2.754,12.942,4.546
			c0.365,0.166,0.763,0.332,1.162,0.564c5.476,2.423,10.686,5.343,15.597,8.761c0.398,0.265,0.763,0.564,1.128,0.83
			c0.564,0.398,1.095,0.796,1.659,1.195c2.954,2.19,5.841,4.613,8.562,7.201c1.726,1.626,3.418,3.319,5.011,5.077
			c2.091,2.29,4.115,4.679,6.007,7.201c1.925,2.622,3.783,5.31,5.476,8.097c1.327,2.19,2.555,4.414,3.75,6.703
			c2.456,4.911,4.546,10.055,6.239,15.431c0.365,1.095,0.664,2.157,0.996,3.285c2.456,8.993,3.617,18.02,3.584,26.88v1.659
			C462.953,297.261,447.189,326.398,421.504,344.285z"/>
		<path style="fill:#FFFFFF;" d="M323.773,174.011c-0.033,0.033-0.066,0.033-0.1,0.066l0.033-0.1
			C323.74,173.977,323.773,174.011,323.773,174.011z"/>
		<path style="fill:#FFFFFF;" d="M323.773,174.011c-0.033,0.033-0.066,0.033-0.1,0.066l0.033-0.1
			C323.74,173.977,323.773,174.011,323.773,174.011z"/>
		<path style="fill:#FFFFFF;" d="M391.538,168.435c-0.266-0.066-0.531-0.133-0.796-0.232c0.199-0.033,0.431-0.066,0.631-0.133
			C391.438,168.203,391.504,168.303,391.538,168.435z"/>
		<path style="fill:#FFFFFF;" d="M323.773,174.011c-0.033,0.033-0.066,0.033-0.1,0.066l0.033-0.1
			C323.74,173.977,323.773,174.011,323.773,174.011z"/>
		<path style="fill:#FFFFFF;" d="M323.773,174.011c-0.033,0.033-0.066,0.033-0.1,0.066l0.033-0.1
			C323.74,173.977,323.773,174.011,323.773,174.011z"/>
	</g>
	<path style="fill:#FFFFFF;stroke:#231F20;stroke-width:0.75;stroke-miterlimit:10;" d="M431.204,322.509H405.9l-37.334-48.434
		h-23.645v48.434h-21.57v-68.581h53.511c15.763,0,29.037-7.361,29.037-25.961c0-18.597-12.859-26.346-28.622-26.346h-53.926v-20.147
		h46.874c39.408,0,57.66,18.597,57.66,44.946c0,21.697-12.859,39.52-35.259,45.335L431.204,322.509z"/>
</g>
</svg>
