<?xml version="1.0" encoding="iso-8859-1"?>
<!-- Generator: Adobe Illustrator 27.0.0, SVG Export Plug-In . SVG Version: 6.00 Build 0)  -->
<svg version="1.1" id="Layer_1" xmlns="http://www.w3.org/2000/svg" xmlns:xlink="http://www.w3.org/1999/xlink" x="0px" y="0px"
	 viewBox="0 0 572.086 518.944" style="enable-background:new 0 0 572.086 518.944;" xml:space="preserve">
<g>
	<path style="fill:#58B368;" d="M246.14,257.862c0.411-0.254,0.343-0.596,0.182-0.948c-0.294-0.642-0.474-1.385-0.918-1.899
		c-0.926-1.074-1.315-2.312-1.511-3.658c-0.015-0.104-0.097-0.209-0.084-0.305c0.206-1.538-0.851-2.605-1.497-3.79
		c-0.406-0.745-0.477-1.488-0.284-2.158c0.25-0.866,0.303-1.853,1.122-2.539c0.219-0.183,0.111-0.881-0.002-1.301
		c-0.109-0.41-0.367-0.712-0.177-1.229c0.113-0.307-0.25-0.778-0.367-1.185c-0.361-1.256-1.158-2.196-2.099-3.061
		c-0.267-0.246-0.377-0.663-0.486-0.865c0.158-0.502,0.303-0.881,0.394-1.272c0.103-0.438,0.166-0.886,0.231-1.332
		c0.095-0.658-0.613-1.352-1.275-1.26c-0.276,0.038-0.552,0.076-0.828,0.116c-0.467,0.067-0.805,0.018-0.977-0.552
		c-0.182-0.605-0.671-0.886-1.343-0.872c-1.21,0.025-2.24,0.619-3.345,0.979c-0.208,0.068-0.466,0.127-0.661,0.064
		c-0.966-0.31-1.929-0.275-2.82,0.15c-0.761,0.363-1.307,0.085-1.883-0.332c-0.657-0.476-1.339-0.92-1.978-1.418
		c-0.258-0.201-0.593-0.494-0.617-0.77c-0.077-0.872-0.833-1.192-1.284-1.747c-0.246-0.303-0.44-0.691-0.907-0.822
		c-0.163-0.046-0.264-0.445-0.322-0.699c-0.084-0.371-0.104-0.757-0.17-1.284c0.387-0.829,0.853-1.793,0.503-3.016
		c-0.142-0.496-0.047-1.045-0.474-1.473c-0.076-0.076,0.003-0.386,0.095-0.537c0.396-0.65,0.832-1.275,1.235-1.921
		c0.098-0.156,0.097-0.373,0.188-0.535c0.18-0.32,0.392-0.621,0.592-0.929c0.011-0.017,0.047-0.021,0.051-0.037
		c0.302-1.113,1.506-1.172,2.175-1.86c0.409-0.421,0.782-0.776,0.587-1.484c-0.18-0.652,0.513-1.81,1.163-2.04
		c0.754-0.266,1.152-0.776,1.33-1.52c0.101-0.423,0.234-0.758,0.687-0.22c0.128,0.153,0.398,0.223,0.615,0.257
		c0.398,0.064,0.805,0.1,1.207,0.095c0.245-0.003,0.514-0.06,0.728-0.176c0.504-0.274,0.951-0.675,1.478-0.879
		c0.529-0.205,1.122-0.27,1.694-0.327c0.429-0.043,0.871,0.055,1.305,0.032c0.423-0.022,0.843-0.114,1.263-0.182
		c0.546-0.089,1.088-0.204,1.637-0.266c0.177-0.02,0.373,0.084,0.554,0.149c0.156,0.056,0.303,0.138,0.496,0.227
		c-0.235,0.296-0.43,0.685,0.028,1.13c0.067,0.065-0.179,0.577-0.386,0.77c-0.389,0.362-0.247,0.48,0.11,0.76
		c0.869,0.681,1.985,0.502,2.91,0.944c0.121,0.058,0.303,0.14,0.321,0.237c0.106,0.552,0.475,0.668,0.966,0.766
		c0.446,0.089,0.846,0.386,1.285,0.537c0.231,0.079,0.566,0.138,0.737,0.027c0.18-0.117,0.353-0.487,0.297-0.678
		c-0.146-0.494-0.02-0.812,0.42-1c0.53-0.226,1.079-0.484,1.605,0.027c0.1,0.098,0.188,0.246,0.307,0.281
		c1.262,0.369,2.527,0.726,3.797,1.066c0.116,0.031,0.28-0.065,0.405-0.133c0.526-0.285,0.983-0.542,1.647-0.156
		c0.374,0.217,0.978,0.039,1.455,0.039c0.559,0.834,0.465,1.672,0.048,2.547c-0.762-0.178-0.696-1.064-1.29-1.436
		c0.138,0.338,0.253,0.688,0.418,1.013c0.567,1.119,1.275,2.187,1.677,3.361c0.191,0.556,0.431,0.922,0.79,1.347
		c0.296,0.351,0.361,0.942,0.417,1.439c0.064,0.571,0.151,1.039,0.665,1.437c0.327,0.253,0.541,0.746,0.646,1.171
		c0.147,0.597,0.497,0.902,0.984,1.233c0.673,0.458,1.25,1.065,1.827,1.649c0.074,0.075-0.102,0.396-0.169,0.627
		c0.031,0.017,0.201,0.052,0.265,0.154c0.401,0.645,0.83,0.85,1.596,0.451c0.506-0.264,1.178-0.194,1.763-0.327
		c0.573-0.131,1.13-0.333,1.697-0.495c0.073-0.021,0.161,0.013,0.441,0.042c-0.253,0.77-0.394,1.528-0.737,2.179
		c-0.706,1.339-1.29,2.781-2.467,3.81c-0.739,0.646-1.611,1.152-2.296,1.847c-1.166,1.183-2.42,2.323-2.99,3.967
		c-0.112,0.322-0.196,0.604,0.146,0.86c0.094,0.071,0.107,0.283,0.113,0.433c0.033,0.767-0.063,1.567,0.678,2.112
		c0.084,0.062,0.131,0.218,0.139,0.335c0.06,0.867,0.101,1.736,0.157,2.603c0.031,0.482-0.631,1.51-1.247,1.663
		c-1.236,0.306-1.825,1.429-2.784,2.075c-0.096,0.065-0.054,0.383-0.024,0.576c0.117,0.746,0.235,1.493,0.393,2.23
		c0.103,0.479-0.17,0.667-0.523,0.821c-0.276,0.12-0.572,0.198-0.836,0.338c-0.34,0.18-0.562,0.333-0.446,0.882
		c0.14,0.662,0.015,1.41-0.607,1.923c-0.179,0.148-0.333,0.333-0.476,0.519c-0.584,0.758-1.158,1.523-1.738,2.283
		c-0.677,0.887-1.724,1.072-2.695,1.385c-0.197,0.063-0.469-0.137-0.683-0.096c-0.818,0.158-1.624,0.375-2.438,0.551
		c-0.578,0.125-0.833-0.356-1.133-0.689C246.348,258.471,246.283,258.174,246.14,257.862z"/>
	<path style="fill:#58B368;" d="M267.666,242.662c0.667,0.593,0.462,1.555,0.741,2.372c-0.089,0.058-0.178,0.116-0.266,0.174
		c-0.029-0.164-0.057-0.328-0.085-0.493c-0.057,0.042-0.114,0.084-0.171,0.126c0.029,1.693-0.649,3.207-1.167,4.763
		c-0.195,0.588-0.346,1.19-0.531,1.781c-0.214,0.684-0.892,0.645-1.372,0.694c-0.471,0.048-0.908-0.305-1.005-0.889
		c-0.065-0.393-0.23-0.776-0.246-1.168c-0.014-0.341,0.022-0.758,0.208-1.019c0.421-0.593,0.628-1.134,0.372-1.881
		c-0.374-1.094-0.031-1.625,1.04-2.022c0.676-0.251,1.394-0.509,1.505-1.394c0.005-0.04,0-0.094,0.023-0.117
		C267,243.304,267.292,243.024,267.666,242.662z"/>
</g>
<path d="M212.472,234.935c0,3.874-3.619,6.836-9.564,6.836c-6.074,0-9.305-3.19-9.693-3.646l1.809-2.848
	c2.068,2.051,5.04,3.304,8.013,3.304c3.748,0,5.816-1.367,5.816-3.532c0-1.823-2.326-2.848-5.816-3.418
	c-7.108-1.025-9.047-3.304-9.047-6.266c0-3.646,3.231-6.494,9.047-6.494c1.034,0,5.04,0.114,8.142,2.62l-1.68,2.848
	c-1.292-1.139-3.36-2.393-6.462-2.393c-3.489,0-5.428,1.139-5.428,3.19c0,1.709,1.68,2.507,5.686,3.19
	C209.37,229.58,212.472,231.289,212.472,234.935z"/>
<polygon points="296.841,240.994 293.331,240.994 291.179,236.238 291.179,236.238 286.196,225.253 282.459,233.52 288.801,233.52 
	288.801,236.691 281.1,236.691 279.062,240.994 275.664,240.994 286.196,218.232 "/>
<polygon points="319.281,241.498 315.771,241.498 313.619,236.742 313.619,236.742 308.636,225.757 304.899,234.024 
	311.241,234.024 311.241,237.195 303.54,237.195 301.502,241.498 298.104,241.498 308.636,218.736 "/>
<g>
	<path d="M252.931,203.624c-0.06,0.02-0.13,0.03-0.19,0.04c0.08,0.03,0.16,0.05,0.24,0.07
		C252.971,203.694,252.951,203.664,252.931,203.624z M232.531,205.434c0.01-0.01,0.02-0.01,0.03-0.02c0,0-0.01-0.01-0.02-0.01
		L232.531,205.434z"/>
	<path d="M327.101,270.714c-8.39-4.79-16.79-9.58-25.18-14.36c-3.47-1.98-4.03-1.92-6.63,0.43c-3.14-1.77-6.25-3.53-9.35-5.29
		c-3.97-2.25-7.92-4.47-11.88-6.73c1.31-3.5,2.02-6.92,2.24-10.18c0.04-0.56,0.07-1.12,0.07-1.67v-0.01
		c0.03-2.36-0.18-4.63-0.64-6.81c-0.26-1.33-0.62-2.62-1.06-3.86c-0.57-1.65-1.27-3.23-2.08-4.72c-0.5-0.91-1.04-1.8-1.61-2.65
		c-0.42-0.63-0.87-1.23-1.33-1.82c-0.67-0.85-1.38-1.67-2.13-2.44c-0.42-0.45-0.86-0.88-1.3-1.31c-0.86-0.79-1.73-1.53-2.66-2.21
		c-0.11-0.09-0.23-0.18-0.35-0.26c-0.14-0.11-0.3-0.21-0.45-0.32c-1.33-0.94-2.72-1.76-4.14-2.44c-0.29-0.15-0.57-0.28-0.86-0.4
		c-0.31-0.14-0.62-0.27-0.94-0.4c-1.82-0.73-3.68-1.28-5.56-1.64c-1.25-0.24-2.51-0.41-3.77-0.5c-0.43-0.04-0.86-0.06-1.28-0.07
		c-1.52-0.04-3.03,0.01-4.53,0.19c-1.04,0.11-2.08,0.27-3.1,0.51c-0.81,0.16-1.61,0.36-2.4,0.59c-0.27,0.08-0.54,0.16-0.81,0.25
		h-0.01c-0.34,0.11-0.67,0.22-1.01,0.35c-0.01,0-0.01,0-0.01,0.01c-0.35,0.12-0.69,0.24-1.03,0.39c-0.1,0.02-0.18,0.06-0.26,0.1
		c-0.45,0.17-0.89,0.37-1.33,0.57c-0.85,0.4-1.69,0.83-2.51,1.3c-0.03,0.02-0.06,0.04-0.09,0.05c-0.64,0.36-1.26,0.75-1.87,1.17
		h-0.01c-0.25,0.18-0.5,0.35-0.75,0.53c-0.37,0.27-0.73,0.54-1.09,0.82c-1.19,0.94-2.31,1.96-3.35,3.09
		c-0.06,0.06-0.13,0.13-0.19,0.2c-0.63,0.68-1.23,1.4-1.8,2.15c-0.06,0.09-0.12,0.17-0.18,0.26c-0.61,0.8-1.17,1.65-1.69,2.53
		c-8.15,13.74-4.93,31,7.34,40.89c4.75,3.84,11.62,6.53,19.05,6.65c1.59,0.02,3.22-0.07,4.85-0.3l0.01-0.01
		c0.55-0.07,1.08-0.16,1.63-0.27l0.04-0.01c0.12-0.02,0.23-0.04,0.35-0.06c0.93-0.2,1.88-0.44,2.82-0.73
		c0.01-0.01,0.03-0.01,0.04-0.02c2-0.62,3.97-1.45,5.92-2.54h0.02c0.09-0.05,0.19-0.11,0.28-0.16c0.02-0.02,0.04-0.03,0.07-0.05
		c3.64-2.07,7.14-5.02,10.34-8.98c4.12,2.37,8.25,4.77,12.4,7.17c2.08,1.19,4.15,2.39,6.23,3.58c1.37,0.78,2.6,1.4,2.28,3.46
		c-0.13,0.78,0.76,2.15,1.55,2.61c9.36,5.47,18.78,10.85,28.23,16.18c1.86,1.05,3.56,0.55,4.71-1.29c0.91-1.47,1.75-2.99,2.6-4.5
		C331.061,274.004,330.751,272.794,327.101,270.714z M262.011,256.724c-0.82,0.57-1.69,1.11-2.59,1.6
		c-1.34,0.74-2.75,1.39-4.24,1.93l-0.01,0.01c-0.74,0.27-1.51,0.52-2.29,0.73c-2.89,0.79-5.8,1.14-8.64,1.07
		c-12.78-0.29-24.33-8.86-27.84-21.83c-2.41-8.89-0.65-17.81,4.11-24.73c0.08-0.11,0.15-0.22,0.23-0.32c0.32-0.46,0.65-0.91,1-1.34
		c0.12-0.15,0.23-0.29,0.35-0.43c0.26-0.32,0.52-0.63,0.81-0.93c0.27-0.3,0.56-0.61,0.85-0.9c0.63-0.65,1.3-1.27,2-1.86
		c0.13-0.11,0.26-0.22,0.39-0.32c0.19-0.17,0.39-0.32,0.6-0.48c0.25-0.2,0.52-0.4,0.79-0.6c0.11-0.07,0.21-0.14,0.32-0.21
		c0.02-0.02,0.04-0.03,0.06-0.05c0.18-0.13,0.37-0.25,0.56-0.38c0.08-0.06,0.16-0.11,0.25-0.16c1-0.65,2.03-1.23,3.12-1.76
		c0.22-0.11,0.46-0.23,0.69-0.33l0.01-0.03c0.01,0,0.02,0.01,0.02,0.01c0.01,0,0.01,0,0.02,0c0.16-0.08,0.32-0.15,0.49-0.21
		c0.22-0.11,0.46-0.21,0.7-0.3c0.82-0.34,1.67-0.64,2.55-0.9c0.27-0.08,0.54-0.17,0.82-0.24c0.55-0.15,1.1-0.29,1.65-0.4h0.01
		c0.32-0.08,0.64-0.14,0.96-0.21c0.25-0.04,0.51-0.08,0.76-0.11c1.15-0.19,2.3-0.3,3.44-0.34c0.5-0.03,1-0.03,1.5-0.02
		c0.1,0,0.2-0.01,0.3,0c1.5,0.03,2.97,0.17,4.43,0.42c0.86,0.15,1.71,0.34,2.55,0.56c0.06-0.01,0.13-0.02,0.19-0.04
		c0.02,0.04,0.04,0.07,0.05,0.11c1.34,0.36,2.64,0.83,3.9,1.37c0.11,0.05,0.23,0.1,0.35,0.17c1.65,0.73,3.22,1.61,4.7,2.64
		c0.12,0.08,0.23,0.17,0.34,0.25c0.17,0.12,0.33,0.24,0.5,0.36c0.89,0.66,1.76,1.39,2.58,2.17c0.52,0.49,1.03,1,1.51,1.53
		c0.63,0.69,1.24,1.41,1.81,2.17c0.58,0.79,1.14,1.6,1.65,2.44c0.4,0.66,0.77,1.33,1.13,2.02c0.74,1.48,1.37,3.03,1.88,4.65
		c0.11,0.33,0.2,0.65,0.3,0.99c0.74,2.71,1.09,5.43,1.08,8.1v0.5C274.501,242.554,269.751,251.334,262.011,256.724z"/>
	<path d="M232.561,205.414c-0.01,0.01-0.02,0.01-0.03,0.02l0.01-0.03C232.551,205.404,232.561,205.414,232.561,205.414z"/>
	<path d="M232.561,205.414c-0.01,0.01-0.02,0.01-0.03,0.02l0.01-0.03C232.551,205.404,232.561,205.414,232.561,205.414z"/>
	<path d="M252.981,203.734c-0.08-0.02-0.16-0.04-0.24-0.07c0.06-0.01,0.13-0.02,0.19-0.04
		C252.951,203.664,252.971,203.694,252.981,203.734z"/>
	<path d="M232.561,205.414c-0.01,0.01-0.02,0.01-0.03,0.02l0.01-0.03C232.551,205.404,232.561,205.414,232.561,205.414z"/>
	<path d="M232.561,205.414c-0.01,0.01-0.02,0.01-0.03,0.02l0.01-0.03C232.551,205.404,232.561,205.414,232.561,205.414z"/>
</g>
<path d="M264.934,250.162h-7.625l-11.25-14.595h-7.125v14.595h-6.5v-20.666h16.125c4.75,0,8.75-2.218,8.75-7.823
	c0-5.604-3.875-7.939-8.625-7.939h-16.25v-6.071h14.125c11.875,0,17.375,5.604,17.375,13.544c0,6.538-3.875,11.909-10.625,13.661
	L264.934,250.162z"/>
</svg>
